<svg xmlns="http://www.w3.org/2000/svg" version="1.1" xmlns:xlink="http://www.w3.org/1999/xlink" xmlns:svgjs="http://svgjs.dev/svgjs" width="100%" height="100%" viewBox="0 0 1000 600"><rect width="1000" height="600" x="0" y="0" fill="#f4a950"/><g><circle r="166.66666666666666" cx="358.42080179850257" cy="380.64300178396877" fill="#161b21" transform="matrix(0.651876500581383,0,0,0.6518765005813831,0,51.86776457483563)"/><path d="M394.2230720398909 310.12508943918846Q395.39112698589554 308.57673753401957 401.74751901764165 307.10987783438577Q408.10391104938776 305.6430181347521 413.78120136834053 305.6430181347521Q419.45849168729325 305.6430181347521 423.15280500488933 307.191370039921L423.15280500488933 307.191370039921L404.00213670411574 454.47494951055137L377.4085136311266 454.47494951055137L385.01445281441255 388.35760675298695L382.4881944428211 389.1453647398273Q364.4784170195405 394.4423580996157 349.8098200232032 399.52203891131023L349.8098200232032 399.52203891131023L347.09341317202967 421.0359811726048Q342.3940293194994 455.643004456556 314.6051872319939 455.643004456556L314.6051872319939 455.643004456556Q304.63597408818697 455.643004456556 299.1759963173281 449.6940734524859Q293.68885447795753 443.717978379904 293.68885447795753 434.3192106748436L293.68885447795753 434.3192106748436Q293.68885447795753 413.4028779208071 323.2161969502141 396.58831951204286L323.2161969502141 396.58831951204286L333.18541009402105 311.7006054128691Q336.90688748012883 309.147182972766 342.96447475824584 307.4086825880149Q349.04922610487466 305.6430181347521 354.6993523553156 305.6430181347521Q360.3766426742684 305.6430181347521 362.1423071275312 305.83316661433423L362.1423071275312 305.83316661433423L351.9829455041421 383.6853869689684Q363.907971580794 379.36630007560245 382.0807334151451 374.4767677434901L382.0807334151451 374.4767677434901L386.7801172676754 373.30871279748544L394.2230720398909 310.12508943918846ZM307.37954500787225 431.3854912755761L307.37954500787225 431.3854912755761Q307.37954500787225 437.660391101787 313.056835326825 437.660391101787L313.056835326825 437.660391101787Q316.1807032056746 437.660391101787 317.15860967209704 435.7860703744773Q318.13651613851954 433.9389137156793 318.6254693717308 432.66220249562764Q319.11442260494204 431.3854912755761 319.49471956410633 429.23952986314896Q319.9021805917824 427.09356845072193 320.09232907136453 425.436560271506Q320.2824775509467 423.77955209229015 320.47262603052883 421.0359811726048Q320.6899385786227 418.2924102529196 320.8800870582048 416.7168942792389L320.8800870582048 416.7168942792389L321.2603840173691 413.7831748799714Q307.37954500787225 423.3720910646141 307.37954500787225 431.3854912755761Z " fill="#f4a950" transform="matrix(0.651876500581383,0,0,0.6518765005813831,0,51.86776457483563)"/><path d="M665.2575046334127 432.01304961372193L665.2575046334127 432.01304961372193L669.9509391731673 388.8497296556319Q669.9509391731673 383.58657184804576 667.2108415516922 380.05971352337474Q664.4707439302168 376.5328551987036 658.4208254194349 376.5328551987036Q652.370906908653 376.5328551987036 648.1658065984683 381.3348084561404Q643.9607062882834 386.1096320341567 642.0073693700041 393.9229797072742L642.0073693700041 393.9229797072742Q640.6508853989768 405.07327794911896 637.9107877775015 426.4514653325099Q635.1706901560264 447.8296527159008 634.4110591322509 454.2865164179909L634.4110591322509 454.2865164179909L608.420826247367 454.2865164179909Q622.4740001872103 334.5361114556971 625.4040055646294 307.1893945997858L625.4040055646294 307.1893945997858Q629.5277168365525 305.6430028728146 636.5543038064742 305.6430028728146L636.5543038064742 305.6430028728146Q651.7740539614009 305.6430028728146 651.7740539614009 314.6229267610156L651.7740539614009 314.6229267610156L651.7740539614009 315.78950297609913Q648.4642330720943 346.4731704007377 644.7474669914793 369.69617598472576L644.7474669914793 369.69617598472576Q655.1110045301283 360.3364365846371 668.1875100108318 360.3364365846371Q681.2911451709559 360.3364365846371 688.8874554087091 366.9832080426711Q696.5108953258828 373.6028498212845 696.5108953258828 383.7764796039896L696.5108953258828 383.7764796039896Q696.5108953258828 386.51657722546486 695.3443191107992 393.9229797072742L695.3443191107992 393.9229797072742Q690.8407923269884 423.22303348146477 690.8407923269884 428.29628353310704L690.8407923269884 428.29628353310704Q690.8407923269884 437.4932448566724 696.9178405171909 437.4932448566724L696.9178405171909 437.4932448566724Q701.9910905688332 437.4932448566724 707.7425826059891 430.73795468095625Q713.5212043225656 424.0097941846607 717.0209329678162 409.9566202448174L717.0209329678162 409.9566202448174Q723.6677044258502 416.98320721473897 725.0241883968774 421.0797888072416L725.0241883968774 421.0797888072416Q714.8776882935931 455.07327712118683 689.1044928440734 455.07327712118683L689.1044928440734 455.07327712118683Q676.977526143089 455.07327712118683 671.1175153882508 447.63974495995694Q665.2575046334127 440.2333424781476 665.2575046334127 432.01304961372193ZM745.3443182828671 410.52634351264885Q757.4712849838515 408.00328332653794 763.4126847769514 400.7596589212519Q769.3812142494717 393.54316419538645 769.3812142494717 386.7878740196703Q769.3812142494717 380.05971352337474 765.7729668865388 377.6180423755254Q762.1375898441856 375.1763712276762 757.8511004957393 375.1763712276762L757.8511004957393 375.1763712276762Q748.6812688515945 375.1763712276762 741.7360709199345 385.4313900486429Q734.7908729882745 395.68640886960975 734.7908729882745 409.8481015271352Q734.7908729882745 424.0097941846607 741.5461631639905 430.9549921163207Q748.2743236602862 437.8730603685601 758.230916007627 437.8730603685601L758.230916007627 437.8730603685601Q772.8809428947222 437.8730603685601 786.364393566734 427.72656026527557Q799.8478442387459 417.55293048257045 808.2580448591152 401.1666041125602L808.2580448591152 401.1666041125602Q812.5445342075618 405.2631857050627 816.0713925322327 411.31310421584465L816.0713925322327 411.31310421584465Q809.6145288301427 425.96313110294 793.2010727807119 440.0163050427833L793.2010727807119 440.0163050427833Q785.0079095957067 446.85298425676115 773.7762223156003 451.1666032846281Q762.5445350354939 455.45309263307445 750.6346057698738 455.45309263307445L750.6346057698738 455.45309263307445Q731.1012365870799 455.45309263307445 719.7610305892915 443.54316336745444L719.7610305892915 443.54316336745444Q707.6611935677274 430.65656564269466 707.6611935677274 410.52634351264885Q707.6611935677274 390.4232510620236 722.7995546843927 375.3662789836201Q737.9379158010579 360.3364365846371 759.0176767108228 360.3364365846371L759.0176767108228 360.3364365846371Q774.0746487892263 360.3364365846371 783.4343881893149 366.87468932498894Q792.8212572688242 373.41294206534076 793.0111650247679 384.5632403071854L793.0111650247679 384.5632403071854Q793.0111650247679 399.5930827061685 780.9927170414658 408.9799517856777Q768.9742690581634 418.33969118576636 748.0844159043424 422.05645726638124L748.0844159043424 422.05645726638124L745.3443182828671 410.52634351264885ZM886.9612448581217 455.2631848771307L886.9612448581217 455.2631848771307Q869.0013970817199 455.2631848771307 863.1413863268817 442.75640266425853L863.1413863268817 442.75640266425853Q852.9677565441766 455.45309263307445 837.0697644037361 455.45309263307445Q821.1446425838751 455.45309263307445 810.2927708156562 444.70973958253796Q799.4680287268582 433.96638653200137 799.4680287268582 416.3863542674869L799.4680287268582 416.3863542674869Q799.4680287268582 390.8030665739112 814.4978711258411 375.55618673956394Q829.5277135248241 360.3364365846371 852.5879410322889 360.3364365846371L852.5879410322889 360.3364365846371Q853.1847939795409 360.3364365846371 853.7545172473724 360.3364365846371L853.7545172473724 360.3364365846371Q863.5212018387692 360.3364365846371 871.741494703195 363.6462574739438L871.741494703195 363.6462574739438Q877.0046525107812 360.3364365846371 884.5195737102727 360.3364365846371Q892.0344949097641 360.3364365846371 895.3714454784913 362.28977350291655L895.3714454784913 362.28977350291655Q893.6080163161557 376.74989263406803 891.6546793978764 390.69454785622906Q889.7013424795971 404.66633275781066 888.9145817764013 410.52634351264885L888.9145817764013 410.52634351264885Q887.1511526140657 423.8198864287168 887.1511526140657 429.6798971835549L887.1511526140657 429.6798971835549Q887.1511526140657 437.4932448566724 893.418108560212 437.4932448566724L893.418108560212 437.4932448566724Q898.3014508559104 437.4932448566724 903.7545164194403 430.9549921163207Q909.2347116623907 424.3896096965483 913.3312932548934 410.336435756705L913.3312932548934 410.336435756705Q919.0013962537878 415.40968580834726 921.1446409280109 421.67664175449363L921.1446409280109 421.67664175449363Q915.4745379291167 440.2333424781476 905.9248907730841 447.7482636776392Q896.3481139376311 455.2631848771307 886.9612448581217 455.2631848771307ZM855.517946409708 375.55618673956394L855.517946409708 375.55618673956394Q843.0111641968358 375.55618673956394 835.6861507532883 385.0515745367553Q828.3611373097406 394.5198326545262 827.0046533387133 413.2664411341241L827.0046533387133 413.2664411341241Q826.8147455827693 415.02987029645965 826.8147455827693 416.5762620234308L826.8147455827693 416.5762620234308Q826.8147455827693 426.15303885888386 831.3996614048417 431.8231418577782Q835.9845772269141 437.4932448566724 843.2010719527798 437.4932448566724L843.2010719527798 437.4932448566724Q855.517946409708 437.4932448566724 861.7577726764337 420.1031203481019L861.7577726764337 420.1031203481019L866.4512072161883 377.91646884915144Q860.7811042172941 375.55618673956394 855.517946409708 375.55618673956394ZM933.352996667257 455.6430003890183Q921.3345486839546 455.6430003890183 914.4978694699769 448.91483989272274Q907.6611902559991 442.18667939642705 907.6611902559991 430.4666578867508L907.6611902559991 430.4666578867508Q907.6611902559991 427.3196150739674 918.2146355505918 337.6831542684805L918.2146355505918 337.6831542684805Q920.9547331720671 314.6229267610156 932.8646624376872 308.57300825023367L932.8646624376872 308.57300825023367Q938.3448576806377 305.6430028728146 945.9682975978112 305.6430028728146L945.9682975978112 305.6430028728146Q971.7414930473308 305.6430028728146 971.7414930473308 329.4628614040548L971.7414930473308 329.4628614040548Q971.7414930473308 331.41619832233414 971.551585291387 333.5594429965573L971.551585291387 333.5594429965573Q969.5982483731077 359.73958363738507 938.7246731925252 386.89639273735247L938.7246731925252 386.89639273735247Q937.7480047333856 396.47316957280555 936.5814285183021 405.4530934610066L936.5814285183021 405.4530934610066Q934.2482760881351 425.5833155910524 934.2482760881351 427.72656026527557L934.2482760881351 427.72656026527557Q934.2482760881351 437.8730603685601 943.0382922203921 437.8730603685601L943.0382922203921 437.8730603685601Q952.5879393764246 437.8730603685601 960.8896212791121 426.8312808443975Q969.1913031817994 415.81663099965544 973.6948299656101 398.61641424702873L973.6948299656101 398.61641424702873Q975.4582591279457 399.2132671942808 978.5781722613087 401.84484609807384Q981.6980853946716 404.4764250018669 982.8646616097549 406.42976192014623L982.8646616097549 406.42976192014623Q979.744748476392 422.6533102136333 968.8114876699117 437.4932448566724L968.8114876699117 437.4932448566724Q963.3312924269612 445.11668477384615 954.9482214860122 450.00002706954456L954.9482214860122 450.00002706954456Q945.3714446505592 455.6430003890183 933.352996667257 455.6430003890183ZM941.4647708140005 361.50301279972064L940.8679178667485 367.3630235545587Q958.8548953225711 347.6397466158212 958.8548953225711 332.0130512695862L958.8548953225711 332.0130512695862Q958.8548953225711 322.626182190077 951.8283083526494 322.626182190077L951.8283083526494 322.626182190077Q947.3247815688387 323.03312738138516 945.8597788801292 328.48619294491516Q944.3947761914196 333.9663881878656 943.1196812586538 346.25613296537324Q941.8445863258883 358.57300742230154 941.4647708140005 361.50301279972064L941.4647708140005 361.50301279972064ZM1010.998139168862 318.3396928416306L1010.998139168862 318.3396928416306Q1010.998139168862 319.50626905671413 1005.7349813612759 360.3364365846371L1005.7349813612759 360.3364365846371L1034.4381821882148 360.3364365846371L1034.4381821882148 375.3662789836201L1003.7816444429966 375.3662789836201L1003.1847914957445 380.2496212793185Q1026.0551112472658 399.40317495022464 1026.0551112472658 422.05645726638124L1026.0551112472658 422.05645726638124Q1026.0551112472658 439.82639728683944 1016.9666686413823 447.63974495995694Q1007.8782260354992 455.45309263307445 995.1815360666833 455.45309263307445Q982.4848460978674 455.45309263307445 976.6248353430292 448.7249321367789Q970.764824588191 441.9696419610626 970.764824588191 432.4199948050301L970.764824588191 432.4199948050301Q970.764824588191 430.24962045138636 971.1446401000787 427.72656026527557L971.1446401000787 427.72656026527557L977.2216882902812 375.77322417492826L976.4349275870854 375.3662789836201L960.6183244849067 375.3662789836201Q960.4012870495421 373.41294206534076 960.4012870495421 369.0179339992121Q960.4012870495421 364.6229259330835 962.1647162118777 360.3364365846371L962.1647162118777 360.3364365846371L978.9579877731962 360.3364365846371L985.2249437193425 307.1893945997858Q989.3215253118451 305.6430028728146 996.1582045258231 305.6430028728146L996.1582045258231 305.6430028728146Q1010.998139168862 305.6430028728146 1010.998139168862 318.3396928416306ZM1012.9514760871414 421.8665495104374L1012.9514760871414 421.8665495104374Q1012.9514760871414 408.38309883842567 1001.2314545774652 395.306593357722L1001.2314545774652 395.306593357722Q997.7317259322147 424.3896096965483 997.7317259322147 428.8931364803591L997.7317259322147 428.8931364803591Q997.7317259322147 437.68315261261625 1003.3746992516885 437.68315261261625L1003.3746992516885 437.68315261261625Q1007.4984105236115 437.68315261261625 1010.2113784656663 433.8849974937398Q1012.9514760871414 430.0597126954426 1012.9514760871414 421.8665495104374ZM1087.3681867377018 432.01304961372193L1087.3681867377018 432.01304961372193L1092.0616212774562 388.8497296556319Q1092.0616212774562 383.58657184804576 1089.3215236559809 380.05971352337474Q1086.6085557139263 376.5328551987036 1080.531507523724 376.5328551987036Q1074.481589012942 376.5328551987036 1070.276488702757 381.3348084561404Q1066.098518071993 386.1096320341567 1064.1451811537136 393.9229797072742L1064.1451811537136 393.9229797072742Q1062.7615675032657 405.07327794911896 1060.0214698817904 426.4514653325099Q1057.3085019397358 447.8296527159008 1056.52174123654 454.2865164179909L1056.52174123654 454.2865164179909L1030.5315083516562 454.2865164179909Q1044.61181197092 334.5361114556971 1047.541817348339 307.1893945997858L1047.541817348339 307.1893945997858Q1051.6383989408414 305.6430028728146 1058.6649859107629 305.6430028728146L1058.6649859107629 305.6430028728146Q1073.9118657451104 305.6430028728146 1073.9118657451104 314.6229267610156L1073.9118657451104 314.6229267610156L1073.9118657451104 315.78950297609913Q1070.574915176383 346.4731704007377 1066.858149095768 369.69617598472576L1066.858149095768 369.69617598472576Q1077.221686634417 360.3364365846371 1090.2981921151209 360.3364365846371Q1103.401827275245 360.3364365846371 1111.0252671924186 366.9832080426711Q1118.6215774301718 373.6028498212845 1118.6215774301718 383.7764796039896L1118.6215774301718 383.7764796039896Q1118.6215774301718 386.51657722546486 1117.455001215088 393.9229797072742L1117.455001215088 393.9229797072742Q1112.9786041106981 423.22303348146477 1112.9786041106981 428.29628353310704L1112.9786041106981 428.29628353310704Q1112.9786041106981 437.4932448566724 1119.0285226214796 437.4932448566724L1119.0285226214796 437.4932448566724Q1124.101772673122 437.4932448566724 1129.853264710278 430.73795468095625Q1135.6318864268546 424.0097941846607 1139.131615072105 409.9566202448174L1139.131615072105 409.9566202448174Q1145.778386530139 416.98320721473897 1147.1620001805868 421.0797888072416L1147.1620001805868 421.0797888072416Q1136.9883703978817 455.07327712118683 1111.2151749483623 455.07327712118683L1111.2151749483623 455.07327712118683Q1099.0882082473777 455.07327712118683 1093.22819749254 447.63974495995694Q1087.3681867377018 440.2333424781476 1087.3681867377018 432.01304961372193ZM1261.0252647086222 455.2631848771307L1261.0252647086222 455.2631848771307Q1243.0654169322202 455.2631848771307 1237.205406177382 442.75640266425853L1237.205406177382 442.75640266425853Q1227.0317763946769 455.45309263307445 1211.1337842542366 455.45309263307445Q1195.2086624343756 455.45309263307445 1184.3567906661565 444.70973958253796Q1173.5320485773586 433.96638653200137 1173.5320485773586 416.3863542674869L1173.5320485773586 416.3863542674869Q1173.5320485773586 390.8030665739112 1188.5618909763416 375.55618673956394Q1203.5917333753246 360.3364365846371 1226.6519608827894 360.3364365846371L1226.6519608827894 360.3364365846371Q1227.2488138300414 360.3364365846371 1227.818537097873 360.3364365846371L1227.818537097873 360.3364365846371Q1237.58522168927 360.3364365846371 1245.8055145536955 363.6462574739438L1245.8055145536955 363.6462574739438Q1251.0686723612816 360.3364365846371 1258.583593560773 360.3364365846371Q1266.0985147602646 360.3364365846371 1269.4354653289915 362.28977350291655L1269.4354653289915 362.28977350291655Q1267.6720361666562 376.74989263406803 1265.718699248377 390.69454785622906Q1263.7653623300976 404.66633275781066 1262.9786016269018 410.52634351264885L1262.9786016269018 410.52634351264885Q1261.215172464566 423.8198864287168 1261.215172464566 429.6798971835549L1261.215172464566 429.6798971835549Q1261.215172464566 437.4932448566724 1267.4821284107124 437.4932448566724L1267.4821284107124 437.4932448566724Q1272.3654707064106 437.4932448566724 1277.818536269941 430.9549921163207Q1283.2987315128912 424.3896096965483 1287.3953131053936 410.336435756705L1287.3953131053936 410.336435756705Q1293.065416104288 415.40968580834726 1295.2086607785113 421.67664175449363L1295.2086607785113 421.67664175449363Q1289.538557779617 440.2333424781476 1279.9889106235846 447.7482636776392Q1270.4121337881315 455.2631848771307 1261.0252647086222 455.2631848771307ZM1229.5819662602084 375.55618673956394L1229.5819662602084 375.55618673956394Q1217.0751840473363 375.55618673956394 1209.7501706037888 385.0515745367553Q1202.4251571602408 394.5198326545262 1201.0686731892138 413.2664411341241L1201.0686731892138 413.2664411341241Q1200.8787654332696 415.02987029645965 1200.8787654332696 416.5762620234308L1200.8787654332696 416.5762620234308Q1200.8787654332696 426.15303885888386 1205.4636812553422 431.8231418577782Q1210.0485970774148 437.4932448566724 1217.26509180328 437.4932448566724L1217.26509180328 437.4932448566724Q1229.5819662602084 437.4932448566724 1235.8217925269341 420.1031203481019L1235.8217925269341 420.1031203481019L1240.515227066689 377.91646884915144Q1234.8451240677946 375.55618673956394 1229.5819662602084 375.55618673956394ZM1295.9954214817071 310.41782645083083Q1300.4989482655178 305.83291062875844 1306.9286822881877 305.83291062875844Q1313.385545990278 305.83291062875844 1317.97046181235 310.41782645083083Q1322.5553776344227 315.00274227290333 1322.5553776344227 321.45960597499345Q1322.5553776344227 327.91646967708357 1317.97046181235 332.3928667814738Q1313.385545990278 336.8963935652846 1306.9286822881877 336.8963935652846Q1300.4989482655178 336.8963935652846 1295.9954214817071 332.3928667814738Q1291.4918946978964 327.91646967708357 1291.4918946978964 321.45960597499345Q1291.4918946978964 315.00274227290333 1295.9954214817071 310.41782645083083ZM1287.992166052646 367.74283906644644Q1289.9455029709252 364.24311042119587 1295.398568534455 362.37116254117814Q1300.8787637774058 360.526344340581 1306.2504403026737 360.526344340581Q1311.6221168279421 360.526344340581 1315.718698420445 361.88282831160825L1315.718698420445 361.88282831160825Q1308.095258503271 420.69997329535397 1308.095258503271 421.26969656318545L1308.095258503271 421.26969656318545Q1307.1185900441315 425.1763703997441 1307.1185900441315 427.80794930353716Q1307.1185900441315 430.4666578867508 1307.5255352354397 432.4199948050301L1307.5255352354397 432.4199948050301Q1308.3122959386355 437.4932448566724 1314.6606409230435 437.4932448566724Q1321.0089859074515 437.4932448566724 1326.3806624327199 429.1915629539851Q1331.7523389579878 420.8898810512977 1334.4653069000428 410.336435756705L1334.4653069000428 410.336435756705Q1335.8489205504907 411.1231964599009 1338.7789259279098 415.02987029645965Q1341.7089313053289 418.9365441330184 1342.27865457316 420.8898810512977L1342.27865457316 420.8898810512977Q1338.3719807366015 436.51657639753273 1329.0122413365125 446.0933532329858L1329.0122413365125 446.0933532329858Q1319.6253722570036 455.6430003890183 1306.5488667762997 455.6430003890183Q1293.445231616176 455.6430003890183 1287.096886631768 449.21326636634865Q1280.74854164736 442.75640266425853 1280.74854164736 432.609902560974L1280.74854164736 432.609902560974Q1280.74854164736 430.4666578867508 1280.9655790827242 428.1063757771632L1280.9655790827242 428.1063757771632L1287.992166052646 367.74283906644644Z " fill="#161b21" transform="matrix(0.651876500581383,0,0,0.6518765005813831,0,51.86776457483563)"/></g></svg>